<svg width="95" height="118" viewBox="0 0 95 118" fill="none" xmlns="http://www.w3.org/2000/svg">
<g opacity="0.2">
<path d="M84.9297 44.1397V44.1275V41.5339V41.5171L84.9295 41.5003C84.7042 28.1198 75.2903 16.831 62.4899 14.0181C61.6953 13.8434 61.2505 13.2177 61.2505 12.6613V5.27181C61.2505 3.46485 59.7856 2.00001 57.9787 2.00001H51.3577H44.7367C42.9297 2.00001 41.4649 3.46485 41.4649 5.27181V11.9843C41.4649 12.6357 40.9368 13.1637 40.2854 13.1637H30.8579C30.2064 13.1637 29.6784 12.6357 29.6784 11.9843V5.27181C29.6784 3.46485 28.2135 2.00001 26.4066 2.00001L19.7856 2L13.1646 2.00001C11.3576 2.00001 9.89279 3.46485 9.89279 5.2718V11.9843C9.89279 12.6357 9.36471 13.1637 8.7133 13.1637H5.27179C3.46483 13.1637 2 14.6286 2 16.4355L2 23.0679V29.7003C2 31.5073 3.46483 32.9721 5.27179 32.9721H9.89373L9.89373 100.114H5.2719C3.46482 100.114 1.99995 101.579 2.00011 103.386L2.00067 110.018V110.019L2.00011 116.651C1.99995 118.458 3.46483 119.923 5.2719 119.923H8.7133C9.36472 119.923 9.89279 120.451 9.89279 121.102V126.728C9.89279 128.535 11.3576 130 13.1646 130H19.7856H26.4066C28.2135 130 29.6784 128.535 29.6784 126.728V121.102C29.6784 120.451 30.2064 119.923 30.8579 119.923H40.2854C40.9368 119.923 41.4649 120.451 41.4649 121.102V126.728C41.4649 128.535 42.9297 130 44.7367 130H51.3577H57.9787C59.7856 130 61.2505 128.535 61.2505 126.728V121.066C61.2505 120.458 61.7758 119.8 62.6307 119.717C79.313 118.1 92.4603 104.207 92.823 87.0792L92.8235 87.0581V87.0369V85.5706V85.5631L92.8234 85.5556C92.7517 75.9571 88.4534 66.9485 81.1966 60.8653C80.5268 60.3038 80.3466 59.2387 80.8328 58.4489C83.4694 54.1658 84.8989 49.2193 84.9297 44.1397ZM58.832 72.4954C66.3599 72.219 72.7035 78.0769 73.0389 85.6154V86.9958C72.7045 94.5349 66.3611 100.392 58.832 100.116L58.7953 100.114H58.7586H29.6793V73.6763C29.6793 73.0249 30.2074 72.4968 30.8588 72.4968H58.7586H58.7953L58.832 72.4954ZM29.6792 51.5093L29.6785 32.9721H55.7296H55.7669L55.8041 32.9707C60.7469 32.7863 64.9157 36.6266 65.1451 41.5761V44.0816C64.9157 49.031 60.7461 52.8714 55.8042 52.687L55.7669 52.6856H55.7296H30.8588C30.2047 52.6856 29.6792 52.1581 29.6792 51.5093Z" stroke="black" stroke-width="4"/>
</g>
</svg>
