<svg width="204" height="267" viewBox="0 0 204 267" fill="none" xmlns="http://www.w3.org/2000/svg">
<path d="M161.589 114.401C167.431 105.251 169.933 94.3598 168.674 83.5705L168.092 78.832C164.67 54.3865 143.635 36.2948 118.989 36.5995L117.137 21.5271C116.157 13.5504 108.906 7.87924 100.943 8.85752C92.9794 9.83579 87.3171 17.095 88.2967 25.0699L90.0707 39.5109L61.2287 43.054L59.4547 28.613C58.4748 20.6363 51.224 14.9652 43.2605 15.9435C35.297 16.9218 29.6347 24.1809 30.6143 32.1559L32.3883 46.5969L17.9682 48.3683C10.003 49.3468 4.34231 56.6058 5.32199 64.5808C6.30189 72.5575 13.5527 78.2286 21.5162 77.2503L116.026 65.6402C127.046 63.8674 137.426 71.3461 139.253 82.3713L139.835 87.1098C140.731 98.2494 132.468 108.018 121.349 108.965L70.1006 115.26C69.1207 107.284 61.8699 101.613 53.9064 102.591C45.9429 103.569 40.2806 110.828 41.2603 118.803L48.3567 176.571C49.3366 184.547 56.5874 190.219 64.5508 189.24C72.5143 188.262 78.1767 181.003 77.197 173.028L73.6492 144.148L130.431 137.172C146.153 134.652 160.958 145.33 163.559 161.062L163.888 163.741C165.174 179.635 153.393 193.577 137.528 194.938L37.4832 207.228C29.518 208.206 23.8573 215.465 24.837 223.44C25.8167 231.415 33.0677 237.088 41.0312 236.11L55.4514 234.338L57.2254 248.779C58.2053 256.756 65.4561 262.427 73.4195 261.449C81.383 260.471 87.0454 253.211 86.0657 245.236L84.2917 230.795L113.134 227.252L114.908 241.693C115.888 249.67 123.138 255.341 131.102 254.363C139.065 253.385 144.728 246.125 143.748 238.15L141.963 223.62C173.332 219.889 195.918 191.67 192.726 160.195L192.397 157.516C189.969 138.897 178.408 122.717 161.589 114.401Z" fill="black"/>
<rect x="47.6364" y="113.186" width="7.72972" height="49.8137" rx="3.86486" transform="rotate(-7.00339 47.6364 113.186)" fill="white"/>
<rect x="54.2338" y="166.891" width="7.72972" height="7.72972" rx="3.86486" transform="rotate(-7.00339 54.2338 166.891)" fill="white"/>
<rect x="119.591" y="241.067" width="7.72972" height="7.72972" rx="3.86486" transform="rotate(-7.00339 119.591 241.067)" fill="white"/>
<rect x="64.1797" y="247.873" width="7.72972" height="7.72972" rx="3.86486" transform="rotate(-7.00339 64.1797 247.873)" fill="white"/>
<rect x="145.452" y="88.1904" width="7.72972" height="7.72972" rx="3.86486" transform="rotate(-7.00339 145.452 88.1904)" fill="white"/>
<rect x="48.3868" y="210.874" width="7.72972" height="7.72972" rx="3.86486" transform="rotate(-7.00339 48.3868 210.874)" fill="white"/>
<rect x="150.617" y="127.36" width="7.72972" height="7.72972" rx="3.86486" transform="rotate(-7.00339 150.617 127.36)" fill="white"/>
<path d="M78.9141 126.472C79.1116 126.46 95.2161 125.094 94.8325 124.516" stroke="black" stroke-linecap="round" stroke-linejoin="round"/>
<path d="M47.4445 51.7724L102.222 45.0433C108.225 44.3058 114.879 43.5937 121.193 44.1901C127.554 44.791 133.826 46.741 138.868 51.5341C143.867 56.287 148.128 63.2163 149.901 72.9342C150.199 74.5674 149.017 76.0706 147.369 76.273C145.722 76.4754 144.233 75.2991 143.922 73.6683C142.339 65.3682 138.729 59.6972 134.726 55.8913C130.98 52.3308 126.166 50.6987 120.628 50.1755C115.042 49.6478 108.986 50.2696 102.955 51.0104L48.1775 57.7395C46.5298 57.942 45.0299 56.7703 44.8275 55.1225C44.625 53.4747 45.7967 51.9748 47.4445 51.7724Z" fill="white" stroke="white" stroke-width="2"/>
<path d="M78.6672 122.787L111.656 118.734C113.268 118.536 114.745 119.654 114.993 121.259C115.252 122.936 114.073 124.494 112.389 124.701L79.4003 128.754C77.7525 128.956 76.2526 127.784 76.0502 126.137C75.8477 124.489 77.0194 122.989 78.6672 122.787Z" fill="white" stroke="white" stroke-width="2"/>
<path d="M84.4108 213.372L130.385 207.724C133.203 207.378 135.613 207.019 138.231 206.019C139.44 205.557 140.03 204.227 139.698 202.976C139.257 201.315 137.404 200.491 135.761 200.997C133.887 201.574 132.007 201.853 129.699 202.137L83.7245 207.784C82.1816 207.974 81.0845 209.378 81.274 210.921C81.4636 212.464 82.868 213.561 84.4108 213.372Z" fill="white" stroke="white" stroke-width="2"/>
<path fill-rule="evenodd" clip-rule="evenodd" d="M147.293 99.646C149.055 100.351 149.926 102.363 149.056 104.049C143.03 115.731 132.097 120.882 124.924 122.563C123.077 122.995 121.393 121.612 121.204 119.725C121.016 117.837 122.397 116.153 124.23 115.662C129.804 114.165 137.925 110.081 142.638 101.478C143.55 99.8141 145.532 98.9412 147.293 99.646Z" fill="white"/>
<path fill-rule="evenodd" clip-rule="evenodd" d="M158.339 197.464C159.431 199.015 161.589 199.4 163.029 198.164C173.008 189.607 175.5 177.781 175.482 170.415C175.477 168.517 173.743 167.197 171.863 167.449C169.982 167.701 168.663 169.433 168.606 171.33C168.436 177.099 166.333 185.943 159.048 192.512C157.639 193.783 157.247 195.912 158.339 197.464Z" fill="white"/>
<path fill-rule="evenodd" clip-rule="evenodd" d="M16.1739 62.7236C16.9674 62.2948 17.8749 61.9504 18.8826 61.6403C20.6961 61.0823 21.8386 59.2664 21.389 57.4231L21.1221 56.3288C20.8199 55.0899 19.5082 53.9039 18.2692 54.2058C16.0925 54.7361 14.8725 54.3098 12.4284 55.6304C10.5635 56.638 9.01925 58.6122 8.01124 61.0355C7.28254 62.7873 8.54541 64.6097 10.4095 64.9631C12.2736 65.3166 14.1641 63.9363 15.7834 62.9475C15.9072 62.872 16.0373 62.7974 16.1739 62.7236Z" fill="white"/>
<path fill-rule="evenodd" clip-rule="evenodd" d="M35.6525 221.279C36.4459 220.851 37.3535 220.506 38.3612 220.196C40.1746 219.638 41.3171 217.822 40.8675 215.979L40.6006 214.884C40.2985 213.646 38.9867 212.46 37.7477 212.761C35.5711 213.292 34.351 212.865 31.9069 214.186C30.0421 215.194 28.4978 217.168 27.4898 219.591C26.7611 221.343 28.024 223.165 29.8881 223.519C31.7522 223.872 33.6427 222.492 35.262 221.503C35.3857 221.428 35.5158 221.353 35.6525 221.279Z" fill="white"/>
</svg>
