<svg width="191" height="298" viewBox="0 0 191 298" fill="none" xmlns="http://www.w3.org/2000/svg">
<path d="M162.634 153.165L101.108 193.725L31.4836 169.574C27.7808 168.291 23.6777 169.628 21.4406 172.845C19.2035 176.062 19.3796 180.374 21.8709 183.398L104.999 284.312C106.904 286.624 109.861 287.799 112.833 287.427C115.806 287.055 118.381 285.187 119.657 282.477L175.357 164.193C177.027 160.648 176.134 156.425 173.174 153.859C170.213 151.293 165.907 151.009 162.634 153.165ZM98.2539 241.351C98.5654 243.84 95.4305 245.19 93.8355 243.254L60.8222 203.179C59.2133 201.226 61.1854 198.391 63.5762 199.22L89.4126 208.182C92.4153 209.223 94.5662 211.879 94.9609 215.033L98.2539 241.351ZM120.359 239.935C119.29 242.205 115.919 241.668 115.608 239.179L112.315 212.861C111.92 209.708 113.35 206.604 116.004 204.854L138.836 189.803C140.948 188.41 143.558 190.672 142.48 192.961L120.359 239.935Z" fill="black"/>
<path d="M170.396 116.12C170.073 115.293 169.625 114.521 169.069 113.83L169.053 113.802L85.9246 12.888C85.7846 12.7176 85.5554 12.6854 85.4037 12.5298C83.5699 10.4604 80.8341 9.42818 78.0908 9.77145C75.3474 10.1147 72.9504 11.7892 71.683 14.2466C71.5743 14.4348 71.3602 14.5225 71.2664 14.7222L15.5661 133.007L15.5576 133.038C15.1887 133.845 14.945 134.704 14.8353 135.585C14.8242 136.33 14.812 137.074 14.7999 137.819C14.8168 137.955 14.8812 138.073 14.9051 138.206C15.1013 139.064 15.3856 139.9 15.7542 140.7C15.9114 141 16.0861 141.29 16.2781 141.569C16.5963 142.041 16.9608 142.478 17.3651 142.878C17.5091 143.022 17.594 143.206 17.7504 143.341C17.8478 143.426 17.9707 143.459 18.0705 143.538C18.5433 143.901 19.0524 144.214 19.5898 144.473C19.8516 144.625 20.1218 144.763 20.3976 144.887C20.4735 144.916 20.534 144.97 20.6118 144.998L94.312 170.565C96.8811 171.454 99.718 171.099 101.989 169.605L167.117 126.666C167.949 126.095 168.674 125.384 169.261 124.563C169.324 124.48 169.424 124.442 169.483 124.356C169.601 124.186 169.637 123.987 169.742 123.812C170.037 123.325 170.281 122.811 170.473 122.276C170.591 121.959 170.689 121.635 170.767 121.305C170.927 120.439 170.997 119.559 170.975 118.678C170.965 118.543 170.999 118.413 170.982 118.278C170.899 117.836 170.781 117.401 170.63 116.978C170.565 116.688 170.488 116.401 170.396 116.12ZM92.6686 55.8492C92.3572 53.3601 95.4921 52.0095 97.0871 53.9457L130.1 94.0209C131.709 95.974 129.737 98.809 127.346 97.9798L101.51 89.0182C98.5073 87.9767 96.3563 85.3207 95.9617 82.167L92.6686 55.8492ZM70.5636 57.2645C71.6324 54.995 75.0034 55.5315 75.3148 58.0207L78.6079 84.3385C79.0025 87.4921 77.5723 90.5963 74.9188 92.3455L52.0871 107.397C49.9743 108.79 47.3645 106.528 48.4426 104.239L70.5636 57.2645ZM99.4052 150.358C97.237 151.787 94.5271 152.126 92.0735 151.275L47.8821 135.945C45.9206 135.264 45.5911 132.63 47.3244 131.487L86.3764 105.742C88.5445 104.313 91.2542 103.974 93.7076 104.825L137.899 120.154C139.861 120.834 140.19 123.469 138.457 124.611L99.4052 150.358Z" fill="black"/>
<rect x="73.0264" y="11.9255" width="8.42447" height="8.42447" rx="4.21224" transform="rotate(-7.00339 73.0264 11.9255)" fill="white"/>
<rect x="15.2616" y="132.903" width="8.42447" height="8.42447" rx="4.21224" transform="rotate(-7.00339 15.2616 132.903)" fill="white"/>
<rect x="20.7102" y="173.229" width="8.42447" height="8.42447" rx="4.21224" transform="rotate(-7.00339 20.7102 173.229)" fill="white"/>
<rect x="91.5493" y="160.15" width="8.42447" height="8.42447" rx="4.21224" transform="rotate(-7.00339 91.5493 160.15)" fill="white"/>
<path fill-rule="evenodd" clip-rule="evenodd" d="M36.2012 102.228C34.5134 101.478 33.7662 99.4912 34.5413 97.8146L64.0278 34.0268C64.787 32.3846 66.724 31.6561 68.3772 32.3911C70.0651 33.1414 70.8122 35.128 70.0372 36.8047L40.5506 100.592C39.7915 102.235 37.8544 102.963 36.2012 102.228Z" fill="white"/>
<path fill-rule="evenodd" clip-rule="evenodd" d="M142.978 100.576C141.698 101.63 139.807 101.446 138.753 100.166L97.6903 50.2769C96.6368 48.9971 96.8204 47.1055 98.1003 46.052C99.3801 44.9986 101.272 45.1821 102.325 46.462L143.388 96.3513C144.442 97.6312 144.258 99.5228 142.978 100.576Z" fill="white"/>
<path fill-rule="evenodd" clip-rule="evenodd" d="M27.025 139.612C27.6303 137.988 29.4216 137.143 31.0596 137.711L73.5389 152.421C75.2319 153.007 76.1106 154.872 75.485 156.551C74.8797 158.175 73.0884 159.019 71.4504 158.452L28.9711 143.742C27.2781 143.155 26.3994 141.291 27.025 139.612Z" fill="white"/>
<path fill-rule="evenodd" clip-rule="evenodd" d="M55.9308 184.155C56.5127 182.533 58.2992 181.691 59.9202 182.274L99.1887 196.391C102.521 197.589 104.909 200.541 105.385 204.05L109.342 233.211C109.574 234.916 108.379 236.486 106.674 236.718C104.969 236.949 103.399 235.755 103.167 234.049L99.7194 208.639C99.2433 205.131 96.8546 202.179 93.5227 200.981L57.8106 188.142C56.1907 187.56 55.3492 185.775 55.9308 184.155Z" fill="white"/>
<path fill-rule="evenodd" clip-rule="evenodd" d="M96.4941 263.864C97.7693 262.832 99.6412 263.04 100.659 264.326L112.093 278.778C113.096 280.045 112.891 281.883 111.636 282.898C110.36 283.93 108.489 283.722 107.471 282.436L96.0364 267.984C95.0341 266.717 95.2383 264.88 96.4941 263.864Z" fill="white"/>
<path d="M26.5663 170.742L98.242 193.739C99.9398 194.284 101.792 194.045 103.296 193.088L166.341 152.969C171.38 149.762 177.5 155.086 175.021 160.52L117.445 286.776C115.596 290.832 110.126 291.526 107.322 288.061L20.069 180.229C16.3192 175.595 20.8901 168.92 26.5663 170.742Z" stroke="black" stroke-width="4"/>
<path d="M167.694 127.229L102.16 171.097C99.8066 172.672 96.8493 173.048 94.1768 172.111L19.3464 145.887C14.3074 144.121 11.905 138.382 14.1836 133.553L70.8373 13.4934C73.6607 7.51016 81.7581 6.51596 85.945 11.6385L169.655 114.054C173.015 118.164 172.105 124.275 167.694 127.229Z" stroke="black" stroke-width="4"/>
</svg>
