<svg width="101" height="117" viewBox="0 0 101 117" fill="none" xmlns="http://www.w3.org/2000/svg">
    <path opacity="0.2" d="M3.70061 52.8291L4.12179 54.7842L3.70061 52.8291ZM4.00097 76.779L4.42216 78.7341L4.00097 76.779ZM14.5832 74.4993L15.0044 76.4545L14.5832 74.4993ZM43.9252 114.258L43.9252 116.258L43.9252 114.258ZM92.2893 112.965L90.3374 112.529L92.2893 112.965ZM90.6762 114.258V116.258V114.258ZM98.4942 85.1803L96.5423 84.7444L98.4942 85.1803ZM50.965 81.1703L52.9212 81.5865L50.965 81.1703ZM55.2461 65.7397L55.6673 67.6948L55.2461 65.7397ZM53.9775 67.0115L55.9337 67.4277L53.9775 67.0115ZM73.9465 60.3854L75.9465 60.3962L73.9465 60.3854ZM72.0573 38.1036L71.6361 36.1484L72.0573 38.1036ZM74.0583 39.7283L76.0582 39.7391L74.0583 39.7283ZM60.0865 38.2993L62.0427 38.7155L60.0865 38.2993ZM62.0513 40.2591L62.4725 42.2142L62.0513 40.2591ZM67.3849 3.99686L65.4287 3.58064L67.3849 3.99686ZM23.4529 47.6143L25.398 48.0798L23.4529 47.6143ZM22.1935 48.8453L22.6147 50.8005L22.1935 48.8453ZM34.0677 3.26811L32.1226 2.80254L34.0677 3.26811ZM32.1226 2.80254L21.5078 47.1487L25.398 48.0798L36.0127 3.73369L32.1226 2.80254ZM65.7682 0H35.6751V4H65.7682V0ZM62.0427 38.7155L69.3411 4.41307L65.4287 3.58064L58.1303 37.8831L62.0427 38.7155ZM71.6361 36.1484L61.6301 38.3039L62.4725 42.2142L72.4785 40.0587L71.6361 36.1484ZM75.9465 60.3962L76.0582 39.7391L72.0583 39.7175L71.9465 60.3746L75.9465 60.3962ZM55.6673 67.6948L73.0629 63.9475L72.2206 60.0372L54.8249 63.7845L55.6673 67.6948ZM52.9212 81.5865L55.9337 67.4277L52.0213 66.5953L49.0088 80.7541L52.9212 81.5865ZM96.8811 81.1672H52.5817V85.1672H96.8811V81.1672ZM94.2413 113.401L100.446 85.6162L96.5423 84.7444L90.3374 112.529L94.2413 113.401ZM43.9252 116.258L90.6762 116.258V112.258L43.9252 112.258L43.9252 116.258ZM9.59616 116.258H43.925V112.258H9.59616V116.258ZM14.5937 76.0344L6.04363 111.755L9.93374 112.686L18.4838 76.9655L14.5937 76.0344ZM4.42216 78.7341L15.0044 76.4545L14.162 72.5442L3.57979 74.8238L4.42216 78.7341ZM0.396469 54.3751L0.00067699 75.0934L3.99995 75.1698L4.39574 54.4515L0.396469 54.3751ZM21.7723 46.8902L3.27943 50.8739L4.12179 54.7842L22.6147 50.8005L21.7723 46.8902ZM4.39574 54.4515C4.39266 54.6125 4.27923 54.7503 4.12179 54.7842L3.27943 50.8739C1.62257 51.2308 0.428841 52.6806 0.396469 54.3751L4.39574 54.4515ZM3.57979 74.8238C3.79864 74.7767 4.00422 74.946 3.99995 75.1698L0.00067699 75.0934C-0.0443199 77.4488 2.11915 79.2303 4.42216 78.7341L3.57979 74.8238ZM18.4838 76.9655C19.1098 74.3502 16.7909 71.9779 14.162 72.5442L15.0044 76.4545C14.7546 76.5083 14.5342 76.2829 14.5937 76.0344L18.4838 76.9655ZM9.59616 112.258C9.82055 112.258 9.98598 112.468 9.93374 112.686L6.04363 111.755C5.49394 114.051 7.23482 116.258 9.59616 116.258V112.258ZM41.9727 113.824C42.1708 112.933 42.9637 112.258 43.925 112.258V116.258C44.8864 116.258 45.6794 115.583 45.8775 114.692L41.9727 113.824ZM43.9252 112.258C42.9877 112.258 42.1761 112.909 41.9727 113.824L45.8775 114.692C45.6741 115.607 44.8625 116.258 43.9252 116.258L43.9252 112.258ZM90.3374 112.529C90.3728 112.371 90.5136 112.258 90.6762 112.258V116.258C92.3869 116.258 93.8684 115.071 94.2413 113.401L90.3374 112.529ZM96.8811 85.1672C96.6588 85.1672 96.4939 84.9613 96.5423 84.7444L100.446 85.6162C100.956 83.3339 99.2195 81.1672 96.8811 81.1672V85.1672ZM49.0088 80.7541C48.5253 83.0266 50.2583 85.1672 52.5817 85.1672V81.1672C52.8025 81.1672 52.9672 81.3706 52.9212 81.5865L49.0088 80.7541ZM54.8249 63.7845C53.4184 64.0875 52.3207 65.188 52.0213 66.5953L55.9337 67.4277C55.9053 67.5615 55.801 67.666 55.6673 67.6948L54.8249 63.7845ZM71.9465 60.3746C71.9474 60.2118 72.0614 60.0714 72.2206 60.0372L73.0629 63.9475C74.7381 63.5866 75.9372 62.1098 75.9465 60.3962L71.9465 60.3746ZM72.4785 40.0587C72.2616 40.1055 72.0571 39.9394 72.0583 39.7175L76.0582 39.7391C76.0709 37.4039 73.9191 35.6566 71.6361 36.1484L72.4785 40.0587ZM58.1303 37.8831C57.579 40.4742 59.8828 42.7721 62.4725 42.2142L61.6301 38.3039C61.8762 38.2509 62.0951 38.4693 62.0427 38.7155L58.1303 37.8831ZM65.7682 4C65.5474 4 65.3827 3.7966 65.4287 3.58064L69.3411 4.41307C69.8246 2.14052 68.0916 0 65.7682 0V4ZM21.5078 47.1487C21.5389 47.0188 21.6418 46.9183 21.7723 46.8902L22.6147 50.8005C23.9886 50.5045 25.0708 49.4466 25.398 48.0798L21.5078 47.1487ZM36.0127 3.73369C35.9753 3.88985 35.8357 4 35.6751 4V0C33.9853 0 32.516 1.1591 32.1226 2.80254L36.0127 3.73369Z" fill="black" />
</svg>