<svg width="226" height="271" viewBox="0 0 226 271" fill="none" xmlns="http://www.w3.org/2000/svg">
<path d="M196.801 167.676L196.802 167.676C200.452 167.054 203.923 168.603 206.213 171.406C208.489 174.189 209.467 178 208.939 181.688L208.938 181.691L202.225 228.254L202.225 228.254C201.519 233.15 198.131 237.498 193.229 238.336L59.1936 261.252L59.1908 261.252C55.6798 261.849 52.3221 260.437 50.0301 257.818L50.0295 257.817C47.7548 255.216 46.6621 251.613 46.9637 248.04L46.9638 248.038L51.4189 195.541C51.7487 191.655 47.9921 188.888 44.3787 190.355L42.1105 191.276L42.1099 191.276C38.9023 192.578 35.4488 192.05 32.7417 190.084L196.801 167.676ZM196.801 167.676L134.577 178.315M196.801 167.676L134.577 178.315M134.577 178.315C131.278 178.879 128.411 176.259 128.644 172.894M134.577 178.315L128.644 172.894M128.644 172.894L129.606 159.033M128.644 172.894L129.606 159.033M129.606 159.033C129.752 156.931 131.105 155.066 133.058 154.274M129.606 159.033L133.058 154.274M133.058 154.274L157.775 144.253M133.058 154.274L157.775 144.253M157.775 144.253C157.775 144.253 157.775 144.253 157.776 144.253M157.775 144.253L157.776 144.253M157.776 144.253C162.916 142.169 165.482 136.363 164.778 130.97" fill="black" stroke="black" stroke-width="6.38" stroke-linejoin="round"/>
<path d="M75.7554 38.7248L127.381 29.8985L122.869 104.494L149.092 100.011L153.272 132.056L119.389 148.461L120.594 196.24L197.214 183.141L190.046 227.738L59.3398 246.854L61.391 169.45L39.6777 176.392L35.4981 144.347L66.9224 128.362L75.7554 38.7248Z" fill="#FEFEFE"/>
<path d="M197.213 170.84L124.757 183.227L126.827 153.389L156.693 141.28C160.115 139.894 162.192 135.786 161.634 131.507L156.998 95.9684C156.653 93.3227 155.338 90.9844 153.411 89.5885C151.484 88.1915 149.146 87.8823 147.031 88.7453L130.76 95.3812L135.286 29.1378C135.471 26.4004 134.593 23.6979 132.902 21.8027C131.212 19.9076 128.895 19.0286 126.614 19.4176L74.4891 28.3291C71.1006 28.9084 68.495 32.1447 68.1492 36.2028L60.6954 123.827L31.3715 135.768C27.9544 137.16 25.8822 141.264 26.4388 145.539L31.0741 181.078C31.4188 183.72 32.7307 186.057 34.6542 187.453C36.5777 188.85 38.9137 189.162 41.0268 188.304L55.7117 182.343L50.1234 248.192C49.8904 250.954 50.7461 253.705 52.4394 255.641C54.1335 257.577 56.4744 258.481 58.781 258.088L192.816 235.173C196.016 234.626 198.54 231.702 199.087 227.909L205.8 181.346C206.208 178.505 205.441 175.587 203.739 173.506C202.038 171.423 199.609 170.431 197.213 170.84ZM186.028 212.209C185.507 215.822 182.689 218.737 179.127 219.346L74.022 237.315C69.9527 238.011 66.4329 234.743 66.7849 230.595L71.9021 170.305C72.1622 167.251 71.0905 164.233 69.062 162.305C67.0335 160.377 64.3302 159.807 61.897 160.795L49.2741 165.92C46.8603 166.9 44.2544 165.399 43.9203 162.838L42.9632 155.5C42.5717 152.498 44.3039 149.544 47.1312 148.393L70.226 138.988C72.9759 137.87 74.9184 134.953 75.2113 131.501L82.004 51.6394C82.3281 47.8289 85.2221 44.6593 88.9607 44.0201L111.698 40.1328C115.724 39.4446 119.224 42.6386 118.943 46.7445L114.792 107.513C114.585 110.545 115.684 113.514 117.711 115.399C119.737 117.284 122.416 117.828 124.826 116.845L138.795 111.15C141.21 110.165 143.82 111.665 144.155 114.23L145.107 121.53C145.499 124.535 143.762 127.492 140.93 128.64L117.197 138.263C114.331 139.453 112.359 142.577 112.188 146.197L108.955 192.884C108.762 195.622 109.637 198.331 111.328 200.229C113.019 202.127 115.339 203.007 117.621 202.614L183.91 191.28C186.552 190.829 188.792 193.043 188.406 195.722L186.028 212.209Z" fill="black"/>
<path d="M197.213 170.84L124.757 183.227L126.827 153.389L156.693 141.28C160.115 139.894 162.192 135.786 161.634 131.507L156.998 95.9684C156.653 93.3227 155.338 90.9844 153.411 89.5885C151.484 88.1915 149.146 87.8823 147.031 88.7453L130.76 95.3812L135.286 29.1378C135.471 26.4004 134.593 23.6979 132.902 21.8027C131.212 19.9076 128.895 19.0286 126.614 19.4176L74.4891 28.3291C71.1006 28.9084 68.495 32.1447 68.1492 36.2028L60.6954 123.827L31.3715 135.768C27.9544 137.16 25.8822 141.264 26.4388 145.539L31.0741 181.078C31.4188 183.72 32.7307 186.057 34.6542 187.453C36.5777 188.85 38.9137 189.162 41.0268 188.304L55.7117 182.343L50.1234 248.192C49.8904 250.954 50.7461 253.705 52.4394 255.641C54.1335 257.577 56.4744 258.481 58.781 258.088L192.816 235.173C196.016 234.626 198.54 231.702 199.087 227.909L205.8 181.346C206.208 178.505 205.441 175.587 203.739 173.506C202.038 171.423 199.609 170.431 197.213 170.84ZM186.028 212.209C185.507 215.822 182.689 218.737 179.127 219.346L74.022 237.315C69.9527 238.011 66.4329 234.743 66.7849 230.595L71.9021 170.305C72.1622 167.251 71.0905 164.233 69.062 162.305C67.0335 160.377 64.3302 159.807 61.897 160.795L49.2741 165.92C46.8603 166.9 44.2544 165.399 43.9203 162.838L42.9632 155.5C42.5717 152.498 44.3039 149.544 47.1312 148.393L70.226 138.988C72.9759 137.87 74.9184 134.953 75.2113 131.501L82.004 51.6394C82.3281 47.8289 85.2221 44.6593 88.9607 44.0201L111.698 40.1328C115.724 39.4446 119.224 42.6386 118.943 46.7445L114.792 107.513C114.585 110.545 115.684 113.514 117.711 115.399C119.737 117.284 122.416 117.828 124.826 116.845L138.795 111.15C141.21 110.165 143.82 111.665 144.155 114.23L145.107 121.53C145.499 124.535 143.762 127.492 140.93 128.64L117.197 138.263C114.331 139.453 112.359 142.577 112.188 146.197L108.955 192.884C108.762 195.622 109.637 198.331 111.328 200.229C113.019 202.127 115.339 203.007 117.621 202.614L183.91 191.28C186.552 190.829 188.792 193.043 188.406 195.722L186.028 212.209Z" stroke="black"/>
<rect width="7.79431" height="8.58038" rx="3.89716" transform="matrix(0.996972 -0.0777654 0.0538104 0.998551 65.6899 30.1284)" fill="white"/>
<rect width="5.72505" height="6.30243" rx="2.86253" transform="matrix(0.996972 -0.0777654 0.0538104 0.998551 23.6704 142.736)" fill="white"/>
<rect width="6.28949" height="6.9238" rx="3.14475" transform="matrix(0.996972 -0.0777654 0.0538104 0.998551 194.1 172.283)" fill="white"/>
<rect width="5.79332" height="6.37758" rx="2.89666" transform="matrix(0.996972 -0.0777654 0.0538104 0.998551 116.1 142.244)" fill="white"/>
<rect width="6.2161" height="6.843" rx="3.10805" transform="matrix(0.996972 -0.0777654 0.0538104 0.998551 48.1001 249.4)" fill="white"/>
<path fill-rule="evenodd" clip-rule="evenodd" d="M99.8847 24.1685C100.079 25.8357 98.9472 27.368 97.2963 27.6713L78.7684 31.0755C76.9574 31.4083 75.2422 30.1408 75.0286 28.3119C74.8339 26.6447 75.9662 25.1125 77.617 24.8092L96.145 21.4049C97.956 21.0722 99.6711 22.3396 99.8847 24.1685Z" fill="white"/>
<path fill-rule="evenodd" clip-rule="evenodd" d="M112.047 194.276L114.859 154.229C114.989 152.37 116.665 151.01 118.511 151.266C120.192 151.499 121.405 152.995 121.285 154.687L118.614 192.416C118.605 192.545 118.649 192.672 118.735 192.768L119.014 193.08C119.532 193.659 119.866 194.378 119.974 195.147L120.12 196.188C120.374 197.993 118.974 199.603 117.153 199.603C115.046 199.989 111.905 196.624 112.047 194.276Z" fill="white"/>
<path fill-rule="evenodd" clip-rule="evenodd" d="M188.493 215.233L192.599 190.777C192.871 189.156 194.449 188.096 196.052 188.456C197.537 188.79 198.502 190.226 198.25 191.726L194.092 216.491C192.908 222.577 188.425 227.254 182.848 228.221L156.143 232.853C154.385 233.158 152.726 231.94 152.491 230.171C152.269 228.499 153.407 226.95 155.069 226.662L182.019 221.987C185.23 221.43 187.811 218.738 188.493 215.233Z" fill="white"/>
<path fill-rule="evenodd" clip-rule="evenodd" d="M29.2125 183.387L25.4123 153.969C25.2302 152.559 26.0515 151.201 27.3889 150.7C29.2187 150.014 31.1933 151.194 31.4424 153.122L35.0684 181.192C35.4269 183.008 37.0797 184.035 38.5996 183.387L40.2066 183.387C41.6158 183.387 42.8536 184.297 43.2697 185.639C43.8558 187.528 42.6167 189.516 40.654 189.835L39.8062 189.972C35.2466 191.916 30.2881 188.834 29.2125 183.387Z" fill="white"/>
<path fill-rule="evenodd" clip-rule="evenodd" d="M127.944 40.1801L125.361 69.8037C125.244 71.1479 124.144 72.2078 122.791 72.2814C121.162 72.3701 119.842 71.0126 119.983 69.3943L122.504 40.4763C121.6 37.7935 120.1 37.5772 119.523 37.5772L117.667 37.4758C116.107 37.3907 114.893 36.1143 114.893 34.5584C114.893 33.0029 116.106 31.7018 117.666 31.5839L119.002 31.4829C124.6 31.4829 128.057 34.6298 127.944 40.1801Z" fill="white"/>
<path d="M123.35 90.862L121.925 109.158C121.865 109.936 121.331 110.594 120.583 110.812C118.744 111.348 116.93 109.87 117.079 107.957L118.441 90.4574C118.548 89.0866 119.756 88.0738 121.125 88.208C122.463 88.3392 123.454 89.5208 123.35 90.862Z" fill="white"/>
<path d="M71.8542 46.892L66.4901 114.019C66.3951 115.207 65.5302 116.187 64.3645 116.428C61.8066 116.957 59.4494 114.871 59.6581 112.264L64.9364 46.3072C65.0911 44.3746 66.7981 42.9504 68.7272 43.1446C70.6132 43.3344 72.0051 45.0025 71.8542 46.892Z" fill="white"/>
<path d="M57.5352 214.47L54.9354 243.912C54.8215 245.202 53.8606 246.254 52.587 246.482C49.8642 246.971 47.4139 244.726 47.6583 241.967L50.1543 213.784C50.3368 211.722 52.1712 210.217 54.2286 210.441C56.2412 210.66 57.7133 212.454 57.5352 214.47Z" fill="white"/>
</svg>
