<svg width="145" height="135" viewBox="0 0 145 135" fill="none" xmlns="http://www.w3.org/2000/svg">
<path opacity="0.2" d="M99.604 79.6548L98.6209 77.9131L99.604 79.6548ZM85.4329 100.064L87.409 100.373L85.4329 100.064ZM60.4664 68.1414L61.8665 69.5695L60.4664 68.1414ZM59.0433 56.0283L58.1507 57.818L59.0433 56.0283ZM58.7335 100.515L56.7527 100.791L58.7335 100.515ZM59.968 96.5629L58.5538 95.1487L59.968 96.5629ZM49.6007 78.794L51.0009 80.2221L49.6007 78.794ZM44.0391 79.4026L44.9901 77.6431L44.0391 79.4026ZM69.3512 87.1797L70.7654 88.5939L69.3512 87.1797ZM84.4504 56.0295L83.558 54.2397L84.4504 56.0295ZM98.2527 30.5046C98.2527 40.8959 92.2731 49.8942 83.558 54.2397L85.3428 57.8194C95.3628 52.8233 102.253 42.4704 102.253 30.5046H98.2527ZM71.7481 4C86.3862 4 98.2527 15.8665 98.2527 30.5046H102.253C102.253 13.6574 88.5953 0 71.7481 0V4ZM45.2435 30.5046C45.2435 15.8665 57.11 4 71.7481 4V0C54.9009 0 41.2435 13.6574 41.2435 30.5046H45.2435ZM59.9359 54.2385C51.222 49.8926 45.2435 40.895 45.2435 30.5046H41.2435C41.2435 42.4694 48.1322 52.8215 58.1507 57.818L59.9359 54.2385ZM59.7397 60.1445V65.1099H63.7397V60.1445H59.7397ZM59.0662 66.7132L48.2006 77.3658L51.0009 80.2221L61.8665 69.5695L59.0662 66.7132ZM30.5046 77.9907C35.0627 77.9907 39.3465 79.1396 43.0881 81.162L44.9901 77.6431C40.6787 75.3128 35.7431 73.9907 30.5046 73.9907V77.9907ZM4 104.495C4 89.8572 15.8665 77.9907 30.5046 77.9907V73.9907C13.6574 73.9907 0 87.648 0 104.495H4ZM30.5046 131C15.8665 131 4 119.133 4 104.495H0C0 121.342 13.6574 135 30.5046 135V131ZM57.0092 104.495C57.0092 119.133 45.1427 131 30.5046 131V135C47.3518 135 61.0092 121.342 61.0092 104.495H57.0092ZM56.7527 100.791C56.9217 102.001 57.0092 103.237 57.0092 104.495H61.0092C61.0092 103.051 60.9088 101.63 60.7142 100.238L56.7527 100.791ZM61.3822 97.9771L70.7654 88.5939L67.937 85.7655L58.5538 95.1487L61.3822 97.9771ZM73.9408 88.5939L82.7976 97.4507L85.626 94.6223L76.7692 85.7655L73.9408 88.5939ZM83.4568 99.7559C83.2156 101.302 83.0906 102.884 83.0906 104.495H87.0906C87.0906 103.092 87.1995 101.715 87.409 100.373L83.4568 99.7559ZM83.0906 104.495C83.0906 121.342 96.7479 135 113.595 135V131C98.9571 131 87.0906 119.133 87.0906 104.495H83.0906ZM113.595 135C130.442 135 144.1 121.342 144.1 104.495H140.1C140.1 119.133 128.233 131 113.595 131V135ZM144.1 104.495C144.1 87.648 130.442 73.9907 113.595 73.9907V77.9907C128.233 77.9907 140.1 89.8572 140.1 104.495H144.1ZM113.595 73.9907C108.157 73.9907 103.046 75.4153 98.6209 77.9131L100.587 81.3965C104.428 79.2285 108.864 77.9907 113.595 77.9907V73.9907ZM95.3378 77.6489L84.4112 66.7223L81.5828 69.5507L92.5094 80.4773L95.3378 77.6489ZM83.7536 65.1346V60.146H79.7536V65.1346H83.7536ZM84.4112 66.7223C83.9901 66.3012 83.7536 65.7301 83.7536 65.1346H79.7536C79.7536 66.7909 80.4116 68.3795 81.5828 69.5507L84.4112 66.7223ZM98.6209 77.9131C97.4281 78.5864 96.0919 78.403 95.3378 77.6489L92.5094 80.4773C94.7415 82.7095 98.1023 82.7991 100.587 81.3965L98.6209 77.9131ZM82.7976 97.4507C83.3315 97.9846 83.6014 98.8296 83.4568 99.7559L87.409 100.373C87.7215 98.3702 87.1883 96.1845 85.626 94.6223L82.7976 97.4507ZM59.7397 65.1099C59.7397 65.7131 59.497 66.2909 59.0662 66.7132L61.8665 69.5695C63.0646 68.3949 63.7397 66.7877 63.7397 65.1099H59.7397ZM58.1507 57.818C59.1633 58.323 59.7397 59.2464 59.7397 60.1445H63.7397C63.7397 57.5035 62.0905 55.3131 59.9359 54.2385L58.1507 57.818ZM60.7142 100.238C60.5869 99.3271 60.8579 98.5014 61.3822 97.9771L58.5538 95.1487C57.0201 96.6824 56.4772 98.8196 56.7527 100.791L60.7142 100.238ZM48.2006 77.3658C47.4572 78.0947 46.1626 78.2769 44.9901 77.6431L43.0881 81.162C45.5395 82.487 48.8028 82.3771 51.0009 80.2221L48.2006 77.3658ZM70.7654 88.5939C71.6423 87.717 73.0639 87.717 73.9408 88.5939L76.7692 85.7655C74.3303 83.3265 70.3759 83.3265 67.937 85.7655L70.7654 88.5939ZM83.558 54.2397C81.4031 55.3141 79.7536 57.5047 79.7536 60.146H83.7536C83.7536 59.2478 84.3301 58.3243 85.3428 57.8194L83.558 54.2397Z" fill="black"/>
</svg>
