<svg width="277" height="266" viewBox="0 0 277 266" fill="none" xmlns="http://www.w3.org/2000/svg">
<path d="M91.5443 175.118C91.4474 175.087 91.349 175.076 91.2508 175.066C91.1368 175.054 91.0229 175.043 90.9115 174.998C85.2201 172.733 79.0127 172.012 72.9298 172.906C53.7126 175.637 40.3138 193.191 43.0033 212.116C45.6928 231.041 63.4538 244.166 82.671 241.435C101.888 238.704 115.287 221.149 112.598 202.225L91.5443 175.118ZM91.5443 175.118C92.1157 175.29 92.7035 175.401 93.3001 175.449M91.5443 175.118L93.3001 175.449M93.3001 175.449C93.833 175.525 94.3722 175.551 94.9106 175.526M93.3001 175.449L94.9106 175.526M94.9106 175.526C95.001 175.52 95.0914 175.531 95.1817 175.543C95.2858 175.556 95.3897 175.569 95.4928 175.554L94.9106 175.526ZM131.332 199.564L131.331 199.556C131.054 197.691 130.679 195.843 130.209 194.017L144.304 175.549L162.987 189.359C163.044 191.243 163.199 193.123 163.452 194.99L163.454 194.999C167.595 224.143 194.934 244.324 224.479 240.126C254.024 235.927 274.658 208.927 270.516 179.784C266.374 150.641 239.037 130.458 209.492 134.656C202.747 135.604 196.242 137.801 190.319 141.131L164.71 122.2L162.989 110.089C181.799 95.109 188.337 69.6399 178.885 47.7034C169.331 25.5312 145.839 12.5302 121.626 15.9713C97.4118 19.4125 78.4715 38.4448 75.4742 62.3998C72.5077 86.1012 85.8835 108.74 108.121 117.887L109.843 129.998L90.5212 155.313C67.7421 149.96 43.9378 159.711 31.6635 179.536C19.2295 199.619 21.5635 225.304 37.4136 242.776C53.2591 260.243 78.8678 265.376 100.475 255.439C122.086 245.501 134.63 222.816 131.332 199.564ZM111.261 202.417C113.842 220.582 100.979 237.47 82.4811 240.099C63.9824 242.728 46.9217 230.093 44.3399 211.926C41.758 193.759 54.6212 176.871 73.1198 174.242L73.1261 174.241C78.975 173.382 84.9424 174.076 90.4121 176.252C90.7076 176.37 90.9826 176.395 91.0859 176.406C91.1319 176.411 91.1593 176.414 91.1737 176.416C91.8174 176.608 92.4791 176.734 93.1503 176.791C93.7499 176.874 94.3557 176.902 94.9603 176.876C94.9702 176.877 94.9848 176.878 95.011 176.882L95.0345 176.885L95.0474 176.886C95.1454 176.899 95.3989 176.931 95.6828 176.891L95.7686 176.879L95.8522 176.856C96.2241 176.753 96.5893 176.63 96.9477 176.487C98.1778 176.212 99.3261 175.647 100.292 174.839C100.833 174.451 101.336 174.01 101.789 173.52C101.8 173.512 101.817 173.499 101.855 173.471L101.864 173.464C101.954 173.398 102.171 173.238 102.36 172.991L128.546 138.681C130.166 136.559 130.871 133.887 130.497 131.254L127.356 109.151L127.343 109.062L127.319 108.975C127.215 108.606 127.088 108.245 126.942 107.896C126.76 107.107 126.481 106.343 126.111 105.62L126.043 105.488L125.949 105.374C125.222 104.497 124.466 103.645 123.682 102.818L123.581 102.711L123.46 102.629C122.784 102.171 122.055 101.797 121.289 101.513C120.957 101.323 120.614 101.153 120.259 101.003L120.174 100.966L120.084 100.942C104.655 96.7828 94.3737 82.5232 95.4278 66.8054C96.4822 51.0835 108.592 38.1762 124.46 35.9211C140.329 33.6658 155.554 42.6884 160.947 57.4941C166.338 72.2959 160.437 88.8552 146.777 97.1488L146.698 97.197L146.626 97.2555C146.328 97.4982 146.046 97.7575 145.78 98.0323C145.121 98.5182 144.526 99.0816 144.005 99.7088L143.911 99.8218L143.844 99.9524C143.322 100.965 142.834 101.994 142.38 103.039L142.321 103.175L142.292 103.321C142.138 104.118 142.084 104.929 142.128 105.736C142.084 106.116 142.064 106.497 142.067 106.879L142.068 106.969L142.08 107.058L145.221 129.16L145.221 129.161C145.597 131.793 147.017 134.162 149.165 135.75L183.873 161.405C184.124 161.591 184.378 161.685 184.484 161.724L184.494 161.728C184.538 161.744 184.564 161.754 184.578 161.759C185.144 162.1 185.744 162.381 186.367 162.601C187.525 163.11 188.79 163.334 190.055 163.256C190.436 163.293 190.817 163.309 191.198 163.304L191.286 163.303L191.372 163.291C191.656 163.25 191.891 163.148 191.98 163.109L191.992 163.104L192.009 163.097C192.032 163.087 192.046 163.081 192.055 163.077C192.654 162.932 193.237 162.733 193.799 162.48C194.417 162.24 195.009 161.939 195.566 161.58C195.579 161.574 195.606 161.563 195.65 161.545L195.661 161.541C195.765 161.498 196.016 161.397 196.26 161.205C200.906 157.593 206.442 155.266 212.297 154.463L212.304 154.462C230.803 151.833 247.861 164.469 250.443 182.635C253.025 200.801 240.164 217.688 221.666 220.318C203.172 222.925 186.126 210.299 183.525 192.144C183.194 189.765 183.108 187.356 183.268 184.957L183.275 184.856L183.266 184.756C183.242 184.462 183.203 184.17 183.15 183.88C183.123 183.235 183.031 182.594 182.875 181.966C182.58 180.742 182.042 179.587 181.291 178.571C180.908 178.046 180.473 177.56 179.994 177.121C179.806 176.894 179.607 176.676 179.397 176.467L179.327 176.397L179.247 176.339L148.408 153.543C148.408 153.543 148.408 153.543 148.408 153.543C146.261 151.955 143.563 151.279 140.909 151.656C138.254 152.034 135.852 153.434 134.232 155.558C134.232 155.558 134.232 155.558 134.232 155.558L110.965 186.042L110.905 186.12L110.858 186.206C110.714 186.466 110.584 186.73 110.467 186.998C110.128 187.554 109.845 188.143 109.624 188.754C109.186 189.939 108.991 191.197 109.049 192.457C109.074 193.103 109.164 193.745 109.318 194.372C109.349 194.668 109.393 194.957 109.45 195.24L109.47 195.342L109.505 195.439C110.327 197.699 110.916 200.037 111.261 202.417Z" fill="black" stroke="black" stroke-width="2.7"/>
<rect x="143.021" y="102.023" width="8.24023" height="8.24023" rx="4.12012" transform="rotate(-7.00339 143.021 102.023)" fill="white"/>
<rect x="49.2087" y="160.656" width="8.24023" height="8.24023" rx="4.12012" transform="rotate(-7.00339 49.2087 160.656)" fill="white"/>
<rect x="107.841" y="188.373" width="8.24023" height="8.24023" rx="4.12012" transform="rotate(-7.00339 107.841 188.373)" fill="white"/>
<rect x="217.644" y="134.005" width="8.24023" height="8.24023" rx="4.12012" transform="rotate(-7.00339 217.644 134.005)" fill="white"/>
<rect x="96.115" y="26.334" width="8.24023" height="8.24023" rx="4.12012" transform="rotate(-7.00339 96.115 26.334)" fill="white"/>
<path fill-rule="evenodd" clip-rule="evenodd" d="M101.978 107.415C102.992 105.621 105.268 104.989 107.062 106.003L112.29 108.958C115.707 110.889 117.993 114.339 118.438 118.238L119.679 129.099C120.045 132.302 119.135 135.52 117.146 138.057L100.287 159.551C99.0157 161.173 96.6704 161.456 95.0489 160.184C93.4275 158.913 93.144 156.567 94.4157 154.946L111.274 133.452C112.052 132.459 112.409 131.2 112.265 129.946L111.024 119.086C110.85 117.56 109.955 116.21 108.618 115.454L103.39 112.499C101.597 111.485 100.964 109.209 101.978 107.415Z" fill="white"/>
<path fill-rule="evenodd" clip-rule="evenodd" d="M81.191 72.7686C79.1455 73.018 77.2685 71.5596 77.1909 69.5004C76.6332 54.6998 83.5469 42.4751 88.8734 36.049C90.1885 34.4626 92.5522 34.5075 93.9835 35.99C95.4149 37.4724 95.3717 39.8381 94.0919 41.4531C89.8008 46.8686 84.3937 56.8069 84.6312 68.5939C84.6728 70.6542 83.2365 72.5191 81.191 72.7686Z" fill="white"/>
<path fill-rule="evenodd" clip-rule="evenodd" d="M29.399 205.225C27.3385 205.247 25.6335 203.591 25.7831 201.536C26.8585 186.764 35.0761 175.375 41.0778 169.574C42.5595 168.142 44.9039 168.447 46.1633 170.078C47.4227 171.709 47.1194 174.056 45.6696 175.52C40.8082 180.43 34.3398 189.713 33.278 201.454C33.0924 203.506 31.4596 205.202 29.399 205.225Z" fill="white"/>
<path fill-rule="evenodd" clip-rule="evenodd" d="M170.379 192.888C168.327 193.072 166.796 194.891 167.151 196.921C169.701 211.511 179.019 222.019 185.571 227.189C187.189 228.466 189.491 227.927 190.581 226.178C191.67 224.429 191.134 222.125 189.544 220.813C184.215 216.415 176.849 207.827 174.617 196.251C174.226 194.228 172.432 192.704 170.379 192.888Z" fill="white"/>
<path fill-rule="evenodd" clip-rule="evenodd" d="M256.634 183.442C258.692 183.326 260.471 184.902 260.415 186.962C260.015 201.768 252.326 213.52 246.595 219.589C245.181 221.087 242.825 220.889 241.492 219.318C240.16 217.746 240.355 215.388 241.737 213.859C246.369 208.732 252.407 199.164 252.932 187.386C253.023 185.327 254.577 183.559 256.634 183.442Z" fill="white"/>
<path fill-rule="evenodd" clip-rule="evenodd" d="M168.605 62.641C170.651 62.3915 172.528 63.8499 172.605 65.9091C173.163 80.7097 166.249 92.9345 160.923 99.3605C159.608 100.947 157.244 100.902 155.813 99.4196C154.381 97.9371 154.424 95.5715 155.704 93.9564C159.995 88.541 165.402 78.6027 165.165 66.8156C165.123 64.7554 166.56 62.8904 168.605 62.641Z" fill="white"/>
<path fill-rule="evenodd" clip-rule="evenodd" d="M103.008 233.364C108.405 227.984 111.3 221.235 112.27 215.505C112.614 213.473 114.309 211.837 116.37 211.887C118.43 211.938 120.074 213.654 119.79 215.695C118.758 223.108 115.169 231.777 108.277 238.649C100.642 246.261 89.1792 251.443 73.3054 250.554C71.2479 250.439 69.7689 248.582 69.9965 246.534C70.2241 244.486 72.0729 243.025 74.1311 243.126C87.8216 243.797 97.0492 239.305 103.008 233.364Z" fill="white"/>
</svg>
